<?xml version="1.0" encoding="UTF-8"?>
<!DOCTYPE svg PUBLIC "-//W3C//DTD SVG 1.1//EN" "http://www.w3.org/Graphics/SVG/1.1/DTD/svg11.dtd">
<svg xmlns="http://www.w3.org/2000/svg" viewBox="0 0 512 512" width="48px" height="48px">
  <path fill="#9bc9ff" fill-rule="evenodd" d="M72.178 37.181c-4.535 0-8.246 3.705-8.246 8.241 0 4.539 3.705 8.25 8.246 8.25 4.539 0 8.241-3.714 8.241-8.25 0-4.533-3.708-8.241-8.241-8.241zm47.001 0c-4.533 0-8.241 3.708-8.241 8.241 0 4.536 3.702 8.25 8.241 8.25 4.542 0 8.251-3.708 8.251-8.25 0-4.539-3.714-8.241-8.251-8.241zm47.011 0c-4.537 0-8.251 3.702-8.251 8.241 0 4.542 3.708 8.25 8.251 8.25 4.539 0 8.241-3.714 8.241-8.25 0-4.533-3.708-8.241-8.241-8.241zm74.441 243.36c-37.314 0-67.672 30.357-67.672 67.672 0 37.306 30.368 67.658 67.672 67.658 37.305 0 67.658-30.353 67.658-67.658 0-37.313-30.342-67.672-67.658-67.672zM77.829 189.388c0-32.018 23.828-59.217 55.522-63.461l4.531-.607v64.068c0 .717.183 1.416.547 2.034l32.476 55.235-4.207 1.776a63.73 63.73 0 0 1-24.821 5.008c-35.323 0-64.048-28.729-64.048-64.053zM19.191 78.838V28.959c0-9.345 7.604-16.948 16.949-16.948h439.719c9.347 0 16.953 7.601 16.953 16.948v49.879H19.191zm306.098 269.375c0 46.686-37.972 84.658-84.658 84.658-46.687 0-84.663-37.97-84.663-84.658 0-46.689 37.971-84.672 84.663-84.672 46.689 0 84.658 37.986 84.658 84.672zm-1.349-97.243v56.696l.391.818a91.79 91.79 0 0 1 6.956 20.499l.673 3.169h7.381V250.97H323.94zm50.341-25.119h15.401v106.3h-15.401v-106.3zm50.341-25.109h15.401v131.409h-15.401V200.742zm-22.375 277.067-54.425-52.911-23.25 23.846L377.294 500h3.41l21.543-22.191z" clip-rule="evenodd"/>
  <path fill="#57a4ff" fill-rule="evenodd" d="M240.631 403.87c-30.69 0-55.671-24.972-55.671-55.657 0-30.704 24.982-55.672 55.671-55.672s55.662 24.968 55.662 55.672c0 30.685-24.972 55.657-55.662 55.657zm0-127.329c-39.52 0-71.672 32.147-71.672 71.672 0 39.506 32.152 71.658 71.672 71.658 39.52 0 71.657-32.152 71.657-71.658.001-39.525-32.137-71.672-71.657-71.672zm117.47-111.182c0 4.42-3.58 8-8 8h-78.12a7.998 7.998 0 1 1 0-15.995h78.12c4.42-.001 8 3.584 8 7.995zm-94.12-33.808c0-4.42 3.58-8 8-8h156.24c4.42 0 8 3.58 8 8s-3.58 8-8 8h-156.24c-4.42.001-8-3.58-8-8zm172.042 196.6h-7.401V204.742h7.401v123.409zm7.996-139.409h-23.397c-4.42 0-8 3.576-8 8v139.41c0 4.42 3.58 8 8 8h23.397c4.42 0 8-3.58 8-8v-139.41c0-4.425-3.58-8-8-8zm-58.337 139.409h-7.401v-98.3h7.401v98.3zm8-114.3H370.28c-4.42 0-8 3.589-8 8v114.3c0 4.42 3.58 8 8 8h23.402a7.997 7.997 0 0 0 7.995-8v-114.3c.001-4.411-3.579-8-7.995-8zM107.849 335.472a7.997 7.997 0 0 1-7.996 7.996H73.829c-4.42 0-8-3.581-8-7.996 0-4.42 3.58-8 8-8h26.024a7.997 7.997 0 0 1 7.996 8zm0-34.954c0 4.42-3.581 8-7.996 8H73.829c-4.42 0-8-3.58-8-8s3.58-7.995 8-7.995h26.024a7.993 7.993 0 0 1 7.996 7.995zm71.063-63.907-23.052-39.213 45.52.023c-2.132 15.85-10.458 29.751-22.468 39.19zm-97.083-47.223c0 33.123 26.94 60.053 60.049 60.053 8.241 0 16.104-1.67 23.265-4.693l-30.161-51.299a8.007 8.007 0 0 1-1.099-4.061v-59.497C104.542 133.82 81.829 159 81.829 189.388zm119.551-7.967-51.502-.019v-51.511c26.732 3.58 47.941 24.798 51.502 51.53zm-59.502-68.078c-41.94 0-76.049 34.119-76.049 76.044 0 41.94 34.109 76.054 76.049 76.054 41.93 0 76.054-34.114 76.054-76.054 0-41.925-34.123-76.044-76.054-76.044zm12.062-67.921c0-6.741 5.5-12.241 12.251-12.241 6.741 0 12.241 5.5 12.241 12.241 0 6.75-5.5 12.25-12.241 12.25-6.751 0-12.251-5.5-12.251-12.25zm-47.001 0c0-6.741 5.5-12.241 12.241-12.241 6.75 0 12.251 5.5 12.251 12.241 0 6.75-5.5 12.25-12.251 12.25-6.741 0-12.241-5.5-12.241-12.25zm-47.006 0c0-6.741 5.5-12.241 12.246-12.241 6.741 0 12.241 5.5 12.241 12.241 0 6.75-5.5 12.25-12.241 12.25-6.746 0-12.246-5.5-12.246-12.25zm415.926 338.08c7.142 0 12.953-5.811 12.953-12.953V90.843H23.191v279.706c0 7.142 5.812 12.953 12.949 12.953h114.498c-4.307-10.939-6.665-22.84-6.665-35.289 0-1.594.038-3.175.108-4.745h-13.618a7.999 7.999 0 1 1 0-15.996h15.746a96.695 96.695 0 0 1 6.279-18.953h-22.024a7.999 7.999 0 0 1-8.005-8c0-4.42 3.58-7.995 8.005-7.995h31.199c17.52-24.77 46.388-40.982 78.969-40.982 28.199 0 53.629 12.151 71.309 31.482V246.97c0-4.42 3.58-8 8-8h23.401c4.42 0 8 3.58 8 8v89.182c0 4.42-3.58 8-8 8H337.2a89.74 89.74 0 0 1 .09 4.061c0 12.448-2.359 24.35-6.67 35.289h145.239zM347.898 430.55l48.695 47.341L379.012 496h-.094l-48.685-47.331 17.665-18.119zm-22.576.203-15.543-15.081a96.844 96.844 0 0 0 4.302-4.703l15.679 15.208-4.438 4.576zm10.019-102.602h-.141a95.707 95.707 0 0 0-7.26-21.392V254.97h7.401v73.181zm-175.373 20.062c0 44.478 36.18 80.658 80.663 80.658 44.477 0 80.658-36.18 80.658-80.658 0-44.482-36.18-80.672-80.658-80.672-44.482 0-80.663 36.19-80.663 80.672zM36.14 16.01c-7.137 0-12.949 5.812-12.949 12.948v45.879h465.621V28.959c0-7.137-5.811-12.948-12.953-12.948H36.14v-.001zm439.719-16H36.14C20.172.01 7.191 13.001 7.191 28.959v341.59c0 15.972 12.982 28.954 28.949 28.954h122.598c17.114 27.227 47.421 45.369 81.894 45.369 21.312 0 41.029-6.944 57.03-18.67l17.538 17.019c-.66 1.811-1 3.75-.967 5.731a15.908 15.908 0 0 0 4.859 11.288l48.69 47.251a16.02 16.02 0 0 0 11.18 4.519c4.198 0 8.392-1.632 11.529-4.868l17.581-18.109c6.17-6.364 6.009-16.543-.34-22.713l-48.69-47.251c-3.071-2.977-7.118-4.547-11.43-4.519a15.948 15.948 0 0 0-5.689 1.142l-16.68-16.189H475.86c15.972 0 28.949-12.982 28.949-28.954V28.959C504.808 13.001 491.831.01 475.859.01z" clip-rule="evenodd"/>
</svg>
