<?xml version="1.0" encoding="UTF-8"?>
<!DOCTYPE svg PUBLIC "-//W3C//DTD SVG 1.1//EN" "http://www.w3.org/Graphics/SVG/1.1/DTD/svg11.dtd">
<svg xmlns="http://www.w3.org/2000/svg" version="1.1" width="48px" height="48px"
     style="shape-rendering:geometricPrecision; text-rendering:geometricPrecision; image-rendering:optimizeQuality; fill-rule:evenodd; clip-rule:evenodd"
     xmlns:xlink="http://www.w3.org/1999/xlink">
    <g>
        <path style="opacity:0.99" fill="#30cb71"
              d="M 43.5,29.5 C 35.7637,43.6898 24.7637,46.8564 10.5,39C 7.88856,35.9104 5.55523,32.7437 3.5,29.5C 1.97806,9.85521 10.9781,1.35521 30.5,4C 41.2845,9.06684 45.6178,17.5668 43.5,29.5 Z"/>
    </g>
    <g>
        <path style="opacity:1" fill="#e2edea"
              d="M 35.5,20.5 C 30.187,25.4783 24.8537,30.4783 19.5,35.5C 16.4802,32.811 13.4802,30.1444 10.5,27.5C 11.714,25.8514 13.0473,24.1848 14.5,22.5C 16.5,23.8333 18.1667,25.5 19.5,27.5C 23.8333,23.8333 27.8333,19.8333 31.5,15.5C 33.6114,16.6046 34.9447,18.2712 35.5,20.5 Z"/>
    </g>
    <g>
        <path style="opacity:1" fill="#30b367"
              d="M 35.5,20.5 C 30.9145,26.7557 25.5812,32.4224 19.5,37.5C 15.7433,34.7488 12.7433,31.4154 10.5,27.5C 13.4802,30.1444 16.4802,32.811 19.5,35.5C 24.8537,30.4783 30.187,25.4783 35.5,20.5 Z"/>
    </g>
    <g>
        <path style="opacity:0.815" fill="#27ad61"
              d="M 3.5,29.5 C 5.55523,32.7437 7.88856,35.9104 10.5,39C 24.7637,46.8564 35.7637,43.6898 43.5,29.5C 39.4554,42.8659 30.4554,48.0326 16.5,45C 9.22497,42.2743 4.89164,37.1076 3.5,29.5 Z"/>
    </g>
</svg>
