<?xml version="1.0" encoding="UTF-8"?>
<!DOCTYPE svg PUBLIC "-//W3C//DTD SVG 1.1//EN" "http://www.w3.org/Graphics/SVG/1.1/DTD/svg11.dtd">
<svg xmlns="http://www.w3.org/2000/svg" version="1.1" width="48px" height="48px"
     style="shape-rendering:geometricPrecision; text-rendering:geometricPrecision; image-rendering:optimizeQuality; fill-rule:evenodd; clip-rule:evenodd"
     xmlns:xlink="http://www.w3.org/1999/xlink">
    <g>
        <path style="opacity:1" fill="#4573d2"
              d="M 5.5,1.5 C 14.8333,1.5 24.1667,1.5 33.5,1.5C 33.5,4.16667 33.5,6.83333 33.5,9.5C 36.1667,9.5 38.8333,9.5 41.5,9.5C 41.5,21.5 41.5,33.5 41.5,45.5C 32.1667,45.5 22.8333,45.5 13.5,45.5C 13.5,42.8333 13.5,40.1667 13.5,37.5C 10.8333,37.5 8.16667,37.5 5.5,37.5C 5.5,25.5 5.5,13.5 5.5,1.5 Z M 9.5,5.5 C 16.1667,5.5 22.8333,5.5 29.5,5.5C 29.5,14.8333 29.5,24.1667 29.5,33.5C 22.8333,33.5 16.1667,33.5 9.5,33.5C 9.5,24.1667 9.5,14.8333 9.5,5.5 Z M 33.5,13.5 C 34.8333,13.5 36.1667,13.5 37.5,13.5C 37.5,22.8333 37.5,32.1667 37.5,41.5C 30.8333,41.5 24.1667,41.5 17.5,41.5C 17.5,40.1667 17.5,38.8333 17.5,37.5C 22.8333,37.5 28.1667,37.5 33.5,37.5C 33.5,29.5 33.5,21.5 33.5,13.5 Z"/>
    </g>
    <g>
        <path style="opacity:1" fill="#4573d2"
              d="M 13.5,9.5 C 17.5,9.5 21.5,9.5 25.5,9.5C 25.5,10.8333 25.5,12.1667 25.5,13.5C 21.5,13.5 17.5,13.5 13.5,13.5C 13.5,12.1667 13.5,10.8333 13.5,9.5 Z"/>
    </g>
    <g>
        <path style="opacity:1" fill="#4573d2"
              d="M 13.5,17.5 C 17.5,17.5 21.5,17.5 25.5,17.5C 25.5,18.8333 25.5,20.1667 25.5,21.5C 21.5,21.5 17.5,21.5 13.5,21.5C 13.5,20.1667 13.5,18.8333 13.5,17.5 Z"/>
    </g>
    <g>
        <path style="opacity:1" fill="#4573d2"
              d="M 13.5,25.5 C 17.5,25.5 21.5,25.5 25.5,25.5C 25.5,26.8333 25.5,28.1667 25.5,29.5C 21.5,29.5 17.5,29.5 13.5,29.5C 13.5,28.1667 13.5,26.8333 13.5,25.5 Z"/>
    </g>
</svg>
