<?xml version="1.0" encoding="UTF-8"?>
<!DOCTYPE svg PUBLIC "-//W3C//DTD SVG 1.1//EN" "http://www.w3.org/Graphics/SVG/1.1/DTD/svg11.dtd">
<svg xmlns="http://www.w3.org/2000/svg" version="1.1" width="48px" height="48px"
     style="shape-rendering:geometricPrecision; text-rendering:geometricPrecision; image-rendering:optimizeQuality; fill-rule:evenodd; clip-rule:evenodd"
     xmlns:xlink="http://www.w3.org/1999/xlink">
    <g>
        <path style="opacity:1" fill="#fb3c5d"
              d="M 41.5,10.5 C 29.5,10.5 17.5,10.5 5.5,10.5C 9.65305,4.0561 15.653,1.0561 23.5,1.5C 31.347,1.0561 37.347,4.0561 41.5,10.5 Z"/>
    </g>
    <g>
        <path style="opacity:0.975" fill="#f8365a"
              d="M 5.5,10.5 C 17.5,10.5 29.5,10.5 41.5,10.5C 42.4013,11.2905 43.0679,12.2905 43.5,13.5C 39.9581,13.1872 36.6248,13.5206 33.5,14.5C 32.5768,13.6971 31.5768,13.5304 30.5,14C 28.3171,16.3504 25.9837,18.517 23.5,20.5C 21.0163,18.517 18.6829,16.3504 16.5,14C 15.4232,13.5304 14.4232,13.6971 13.5,14.5C 10.3752,13.5206 7.04185,13.1872 3.5,13.5C 3.93205,12.2905 4.59872,11.2905 5.5,10.5 Z"/>
    </g>
    <g>
        <path style="opacity:1" fill="#fe718f"
              d="M 33.5,14.5 C 31.5967,17.7485 29.2634,20.7485 26.5,23.5C 28.5211,26.1878 30.8544,28.5211 33.5,30.5C 33.5852,31.9953 32.9185,32.9953 31.5,33.5C 28.8333,31.1667 26.1667,28.8333 23.5,26.5C 20.8333,28.8333 18.1667,31.1667 15.5,33.5C 14.0815,32.9953 13.4148,31.9953 13.5,30.5C 16.1456,28.5211 18.4789,26.1878 20.5,23.5C 17.7366,20.7485 15.4033,17.7485 13.5,14.5C 14.4232,13.6971 15.4232,13.5304 16.5,14C 18.6829,16.3504 21.0163,18.517 23.5,20.5C 25.9837,18.517 28.3171,16.3504 30.5,14C 31.5768,13.5304 32.5768,13.6971 33.5,14.5 Z"/>
    </g>
    <g>
        <path style="opacity:0.978" fill="#f1244c"
              d="M 3.5,13.5 C 7.04185,13.1872 10.3752,13.5206 13.5,14.5C 15.4033,17.7485 17.7366,20.7485 20.5,23.5C 18.4789,26.1878 16.1456,28.5211 13.5,30.5C 9.70159,29.5166 5.70159,29.1832 1.5,29.5C 1.33432,25.1539 1.50098,20.8206 2,16.5C 2.23209,15.2625 2.73209,14.2625 3.5,13.5 Z"/>
    </g>
    <g>
        <path style="opacity:0.964" fill="#f1244c"
              d="M 43.5,13.5 C 45.0186,16.5256 45.6852,19.8589 45.5,23.5C 45.4966,26.0254 45.1633,28.3587 44.5,30.5C 40.8333,29.1667 37.1667,29.1667 33.5,30.5C 30.8544,28.5211 28.5211,26.1878 26.5,23.5C 29.2634,20.7485 31.5967,17.7485 33.5,14.5C 36.6248,13.5206 39.9581,13.1872 43.5,13.5 Z"/>
    </g>
    <g>
        <path style="opacity:0.982" fill="#ec1641"
              d="M 33.5,30.5 C 37.1667,29.1667 40.8333,29.1667 44.5,30.5C 44.0023,33.3263 42.6689,35.6597 40.5,37.5C 29.1667,37.5 17.8333,37.5 6.5,37.5C 4.04531,35.3678 2.37864,32.7012 1.5,29.5C 5.70159,29.1832 9.70159,29.5166 13.5,30.5C 13.4148,31.9953 14.0815,32.9953 15.5,33.5C 18.1667,31.1667 20.8333,28.8333 23.5,26.5C 26.1667,28.8333 28.8333,31.1667 31.5,33.5C 32.9185,32.9953 33.5852,31.9953 33.5,30.5 Z"/>
    </g>
    <g>
        <path style="opacity:0.979" fill="#e80736"
              d="M 6.5,37.5 C 17.8333,37.5 29.1667,37.5 40.5,37.5C 36.5382,43.6066 30.8715,46.2733 23.5,45.5C 16.0552,46.2568 10.3885,43.5901 6.5,37.5 Z"/>
    </g>
</svg>
